<?xml version="1.0" encoding="UTF-8"?>
<svg width="12px" height="12px" viewBox="0 0 12 12" version="1.1" xmlns="http://www.w3.org/2000/svg" xmlns:xlink="http://www.w3.org/1999/xlink">
    <!-- Generator: Sketch 53.2 (72643) - https://sketchapp.com -->
    <title>Shape</title>
    <desc>Created with Sketch.</desc>
    <g id="tooltip优化" stroke="none" stroke-width="1" fill="none" fill-rule="evenodd">
        <g id="内容区域（跟随开关）样式" transform="translate(-1419.000000, -734.000000)" fill="#3C88F0" fill-rule="nonzero">
            <path d="M1425.01327,734.013871 C1421.70018,734.013871 1419.01327,736.700778 1419.01327,740.013871 C1419.01327,743.326965 1421.70018,746.013871 1425.01327,746.013871 C1428.32637,746.013871 1431.01327,743.326965 1431.01327,740.013871 C1431.01327,736.700778 1428.32637,734.013871 1425.01327,734.013871 Z M1424.9747,744.21243 C1424.48638,744.21243 1424.0891,743.823479 1424.0891,743.344826 C1424.0891,742.866228 1424.485,742.477223 1424.97471,742.477223 C1425.46288,742.477223 1425.86016,742.866228 1425.86016,743.344826 C1425.86016,743.823479 1425.46435,744.21243 1424.9747,744.21243 Z M1426.24502,740.418037 C1425.95259,740.66077 1425.77052,740.856596 1425.70021,741.005596 C1425.62988,741.153131 1425.59673,741.418028 1425.6036,741.800084 L1424.34295,741.800084 C1424.34018,741.619405 1424.33746,741.508992 1424.33746,741.468966 C1424.33746,741.060701 1424.40502,740.725539 1424.54017,740.462094 C1424.67533,740.198649 1424.94565,739.90206 1425.34982,739.573846 C1425.75399,739.244167 1425.99672,739.029041 1426.07539,738.926947 C1426.19673,738.765582 1426.25878,738.587632 1426.25878,738.394493 C1426.25878,738.125565 1426.14989,737.895278 1425.93466,737.702153 C1425.71953,737.510426 1425.4271,737.41383 1425.06156,737.41383 C1424.70849,737.41383 1424.41328,737.514525 1424.17603,737.714518 C1423.93878,737.914443 1423.73462,738.355865 1423.68633,738.62896 C1423.64081,738.886922 1422.39808,738.995883 1422.41323,738.473092 C1422.42838,737.950301 1422.70016,737.383468 1423.16632,736.97242 C1423.63254,736.561373 1424.24497,736.355816 1425.00216,736.355816 C1425.79944,736.355816 1426.43251,736.564156 1426.90423,736.980618 C1427.37593,737.397162 1427.61046,737.881298 1427.61046,738.434383 C1427.61185,738.740785 1427.52498,739.030425 1427.35258,739.30352 C1427.17885,739.576629 1426.81047,739.94765 1426.24502,740.418037 Z" id="Shape"></path>
        </g>
    </g>
</svg>